<svg xmlns="http://www.w3.org/2000/svg" viewBox="0 0 1287.88 1573.4"><defs><style>.a{fill:#fff;fill-rule:evenodd;}</style></defs><title>starcitizen_transparent</title><path class="a" d="M995.06,290.69c-0.65,11.39-.58,21.1,2.9,30.73q23,63.86,45.7,127.87c1.63,4.6,3.83,8,8.16,10.66,11.07,6.79,21.77,14.17,32.65,21.27,2,1.33,4.22,2.43,7.82,4.49-14.16-53-30.62-103.42-48.6-154.83,4.21,1,7,1.72,9.84,2.35,5.19,1.16,10.35,2.7,15.61,3.3,8.12,0.93,12.69-2.29,14.65-10.21a54.68,54.68,0,0,0,1.45-12.84q0.17-51,0-102a76.43,76.43,0,0,0-1.51-14.87c-1.92-9.45-8-15.28-17.42-17a92.08,92.08,0,0,0-15.89-1.41q-53-.18-106,0c-2.89,0-5.79.33-9.73,0.57q1.53,115.51,3,229.51l45,16.13c0-35.85-.08-71.09,0-106.34,0.1-35.47-1.81-71-.64-107.39l57,3.62v85.58Z" transform="translate(-120.01 -178.17)"/><path class="a" d="M583.83,251.81c0-18.84.28-37.12-.12-55.38-0.19-8.53-5.94-14.56-14.91-16.38A89.72,89.72,0,0,0,551,178.27c-29.31,0-58.61.3-87.92,0.6-18.25.19-27,8.64-27.3,27-0.32,23.32,0,46.64-.1,70,0,10.51,4,18.63,13.23,24.07,17.22,10.12,34.22,20.61,51.57,30.5,11.5,6.56,23.44,12.35,34.59,18.17v48.26L481,420.62V366.54c-9.63,1.46-35.61,12.69-45.24,19.49,0,25,0,50.3,0,75.6a20.6,20.6,0,0,0,1,5.88c2.11,6.87,6.11,9.39,12.83,7.18A60.75,60.75,0,0,0,463,468.09a555.35,555.35,0,0,1,90.49-46.47,85.28,85.28,0,0,0,17.29-9.75c7.17-5.12,10.75-12.6,10.84-21.48,0.19-19,.19-38,0.4-57,0.08-7.49-3.22-12.66-9.79-16-5-2.58-10.1-5.13-15-8-22.93-13.54-45.86-27.08-68.62-40.91-2.83-1.72-6.5-5-6.61-7.72-0.64-15.21-.31-30.47-0.31-46.15a485.88,485.88,0,0,1,56.06-3.41v46.23Z" transform="translate(-120.01 -178.17)"/><path class="a" d="M1246.65,1676.32l-2.77.4q-10.11-19.4-20.22-38.81c-8-15.37-15.79-30.83-24-46.09-1.43-2.67-4.1-6.31-6.48-6.54-8.47-.8-17.07-0.31-25.91-0.31v166h32.37v-94.44l1.79-.28,48.52,95.2c9.92,0,19.39.54,28.8-.32V1585.48h-32.13v90.84Z" transform="translate(-120.01 -178.17)"/><path class="a" d="M754,178.65H607.14a194.26,194.26,0,0,0,0,29.66c17.4,0.36,33.52-1.55,50.21-.15-0.67,61.81-1.32,122.57-2,184l46.74-6.78c0.22-3.07.54-5.69,0.56-8.31q0.38-49.41.68-98.83c0.13-21,.2-41.94.37-62.9,0-2.85.46-5.7,0.8-9.65H754V178.65Z" transform="translate(-120.01 -178.17)"/><path class="a" d="M325.26,1694.71v34.1h-41.5c-2.29-14.09-1.51-115.14.88-122h40.75v32.11h32.49c0-14.25.08-27.85,0-41.45-0.05-5.79-3.74-9.23-8.81-10.85a36.71,36.71,0,0,0-10.8-1.62q-35-.21-70,0c-11.67.06-19.36,3.5-19.12,19.36,0.56,37.32.18,74.64,0.18,112,0,6.67-.15,13.33.06,20,0.26,8.26,3.43,12.15,11.45,14a51.06,51.06,0,0,0,10.88,1.28q31.49,0.18,63,0a55.61,55.61,0,0,0,11.87-1.36c8.06-1.83,11.24-5.72,11.37-14,0.18-11.33.11-22.66,0-34a61.83,61.83,0,0,0-.93-7.43H325.26Z" transform="translate(-120.01 -178.17)"/><path class="a" d="M1014.61,1585.52v165.4H1106v-22.07c-10.2,0-19.79.23-29.36-.07s-19.06,1.37-28.37-1.13v-50.53h48.65v-21.82h-48c-2-11.22-1.71-40,.56-48.15H1105v-21.64h-90.36Z" transform="translate(-120.01 -178.17)"/><path class="a" d="M849.5,1750.8H949.79v-23H889.45c1.53-3.29,2.47-5.34,3.44-7.37,18.09-37.85,36.11-75.74,54.34-113.53,3.33-6.9,4.35-13.71,2.59-20.93-13.78-2.17-88.72-1.52-95.4.67v21.43h55.4c-2.28,5.09-3.95,9-5.77,12.85-17.41,36.7-34.75,73.44-52.35,110A29.2,29.2,0,0,0,849.5,1750.8Z" transform="translate(-120.01 -178.17)"/><path class="a" d="M647.25,1607.16h35.6v-21.65H577.94v22.23h35.7v71.89c0,12-.07,24,0,35.93,0.09,11.8-.41,23.64.39,35.88,11.83-.09,22.29.59,33.2-0.48v-143.8Z" transform="translate(-120.01 -178.17)"/><path class="a" d="M456.28,1585.48v165.39h32.39V1585.48H456.28Z" transform="translate(-120.01 -178.17)"/><path class="a" d="M784.75,1585.46h-32.5V1750.9h32.5V1585.46Z" transform="translate(-120.01 -178.17)"/><path class="a" d="M454.33,1542.31c12.29,3.17,22.5,3.25,36.36.64,31.55-5.95,58.77-20.59,82.84-41.42a85.72,85.72,0,0,0,12.18-13.1c2.43-3.22,3.62-7.37,5.37-11.12-7.27-5.45-14.31-4.79-21.16-4.11-22.49,2.23-43.35,9.74-63.22,20.2-17.88,9.41-33.52,21.6-45.63,37.94C458.58,1534.7,456.66,1538.48,454.33,1542.31Z" transform="translate(-120.01 -178.17)"/><path class="a" d="M937.79,1477.22c0.71,8.79,6.46,14.65,12.21,20,25.41,23.62,54.76,40,89.22,46,11.22,1.95,22.71,3,35.92-1-5.91-7.6-10.52-14.45-16-20.47-17.52-19.08-39.5-31.29-63.67-39.84-13.53-4.79-27.3-8.64-41.77-9C948.11,1472.8,942.26,1472.32,937.79,1477.22Z" transform="translate(-120.01 -178.17)"/><path class="a" d="M1000.42,1454.59c2.34,8,3.45,10.93,11.95,16.47,11.93,7.78,24.25,15.22,37.14,21.22a145.6,145.6,0,0,0,68.9,13.57,72.7,72.7,0,0,0,25.21-5.21c-5.32-5.69-9.18-10.72-13.91-14.73-32-27.13-69.87-37.48-111-37.46C1012.31,1448.46,1005.24,1449,1000.42,1454.59Z" transform="translate(-120.01 -178.17)"/><path class="a" d="M385.1,1501.3c4.75,1.21,7.91,2.33,11.16,2.79,46.68,6.62,87.21-7.92,123.62-36.3a27.48,27.48,0,0,0,5.35-5.9c4.33-6.15,3.14-9.33-4.22-11.63a16.42,16.42,0,0,0-4.9-.89c-10.59.06-21.28-.63-31.75,0.58-28.55,3.28-55,12.62-78.36,29.81A81.71,81.71,0,0,0,385.1,1501.3Z" transform="translate(-120.01 -178.17)"/><path class="a" d="M1202.11,1450.47c-6.72-5.09-12.17-10-18.33-13.76-29.13-17.82-61.25-23.1-94.81-21.42a128.92,128.92,0,0,0-21.66,3.13c-4.66,1-9.77,2.44-11.76,7.71C1072,1457.47,1164.43,1473.49,1202.11,1450.47Z" transform="translate(-120.01 -178.17)"/><path class="a" d="M473.08,1425.65c-3.77-4.92-8.79-6.54-14-7.77-16.72-4-33.66-3.63-50.56-1.91-23.43,2.38-45.63,8.8-65.63,21.64-5.76,3.7-11.47,7.58-16.13,14.49,5.77,2.14,10.57,4.24,15.56,5.71,15.87,4.68,32.2,5.14,48.45,3.49,22.65-2.3,44.38-8.35,64.57-19.16C462.33,1438.4,469.63,1434.77,473.08,1425.65Z" transform="translate(-120.01 -178.17)"/><path class="a" d="M1108.8,1390.91c3.72,6.63,9.28,9.95,15.25,11.69,13.34,3.89,26.75,8.14,40.43,10.1,24.92,3.58,49.78,2.34,73.57-7.1,6-2.37,11.52-5.78,18.94-9.56-6-3.83-10-6.71-14.24-9.05-16.33-8.94-34.12-12.79-52.48-14.26a169.15,169.15,0,0,0-64,6.68C1119.68,1381.45,1113,1383.76,1108.8,1390.91Z" transform="translate(-120.01 -178.17)"/><path class="a" d="M271.59,1396.56c7.62,3.69,13.36,6.93,19.43,9.32,23.51,9.25,48.07,10.34,72.63,6.85,14-2,27.7-6.5,41.35-10.5,6-1.76,11.5-5.14,14.56-11.79-5.1-7.49-13.08-10.07-21-12.17-27.75-7.32-55.78-8.43-83.85-2C299.74,1379.64,285.54,1385,271.59,1396.56Z" transform="translate(-120.01 -178.17)"/><path class="a" d="M1159.36,1351.22c5,2.53,9.1,5.53,13.7,6.77a156.07,156.07,0,0,0,25.36,4.87c30.34,2.9,59.72-.83,87.16-14.88,6.63-3.4,12.58-8.12,21-13.63-8.41-3.51-14.26-6.54-20.46-8.45-25.44-7.84-51.21-7.24-76.77-1.06-11.87,2.87-23.44,7.23-34.81,11.77C1168.53,1339,1162.54,1342.43,1159.36,1351.22Z" transform="translate(-120.01 -178.17)"/><path class="a" d="M223.6,1334.41c9.18,9.4,19.79,14.9,31,19.07,31,11.52,62.84,13.28,95.13,6.27a50.33,50.33,0,0,0,12.14-4.37c7.43-3.81,7.87-7.44,1.55-12.6a48.69,48.69,0,0,0-10.93-6.87c-30.8-13.63-62.87-19-96.31-13.47C245.11,1324.26,234.19,1327.23,223.6,1334.41Z" transform="translate(-120.01 -178.17)"/><path class="a" d="M184.86,1268.25c5.48,5,9.72,9.67,14.7,13.32,32.82,24,70.16,30.92,109.84,27.91,5.71-.43,12-1.53,15.66-7C312,1271.17,225.73,1249.37,184.86,1268.25Z" transform="translate(-120.01 -178.17)"/><path class="a" d="M1343.56,1267.27c-5.47-1.69-8.58-2.81-11.78-3.62a117.77,117.77,0,0,0-44.54-2.14,170.35,170.35,0,0,0-69,24.42,58.63,58.63,0,0,0-12.68,11c-3.65,4.16-2.87,7.42,2.32,9.2,5.88,2,12.23,3.79,18.36,3.75,13.26-.1,26.67-0.4,39.73-2.47,25.69-4.06,49.35-13.45,69.06-31.12C1337.63,1274,1339.85,1271.24,1343.56,1267.27Z" transform="translate(-120.01 -178.17)"/><path class="a" d="M287.61,1249.79c-1.74-9-8-14.27-14.1-19.21-24.11-19.38-51.36-32.06-82.16-36-11.68-1.5-23.66-2.06-36.12,2.32a71.59,71.59,0,0,0,16.1,19.68c28.05,24.2,61.1,35.85,97.67,38.17C275.17,1255.11,281.75,1255.15,287.61,1249.79Z" transform="translate(-120.01 -178.17)"/><path class="a" d="M1373.08,1198.62l-1.14-2.78c-5.22-.66-10.44-1.77-15.68-1.9-39.91-1-73.88,14.19-104.15,38.93a47.05,47.05,0,0,0-9.59,11.36c-2.89,4.57-1.58,7.75,3.57,9a45.48,45.48,0,0,0,13.81,1.5c36.13-2.56,69-13.82,96.62-38C1362.64,1211.41,1367.59,1204.71,1373.08,1198.62Z" transform="translate(-120.01 -178.17)"/><path class="a" d="M133.58,1120.83c3.92,11,10.25,19.08,17.35,26.55,21.73,22.89,48.55,36.88,78.86,44.53a72.17,72.17,0,0,0,15.76,2.07c3.38,0.08,6.79-1.33,10.09-2-1.18-9.26-2.33-12.2-9-19.49-22.09-24.13-48.53-41.37-80.45-49.48C155.91,1120.34,145.41,1118.65,133.58,1120.83Z" transform="translate(-120.01 -178.17)"/><path class="a" d="M1270.58,1190.43c9.18,5.24,16.76,3.94,24.18,2.39a166.07,166.07,0,0,0,58.39-24.9c15.11-10.07,28.19-22.28,37.5-38.1,1.58-2.68,2.59-5.68,4.24-9.36-4.5-.25-7.47-0.64-10.43-0.53a91.81,91.81,0,0,0-11.91,1.05c-37,6.2-66.9,25.08-91.65,52.58C1276.83,1178.06,1274.41,1184,1270.58,1190.43Z" transform="translate(-120.01 -178.17)"/><path class="a" d="M122.34,1045c1.93,10.62,5.86,17.92,10.4,24.84,19.53,29.75,47.18,49,80.12,61.21,4.56,1.68,9.73,2.06,14.65,2.31,4,0.2,6.32-2.38,5-6.52-1.41-4.39-2.76-9-5.26-12.8-20.6-31.21-47.88-54.05-84-65.27C137,1046.83,130.38,1046.39,122.34,1045Z" transform="translate(-120.01 -178.17)"/><path class="a" d="M1406.45,1045.62c-5.79.6-10.06,0.68-14.18,1.53-29.82,6.18-53.54,22.79-73.83,44.58-7.4,8-13.49,17.21-19.58,26.26-2.68,4-4.71,8.84-2.16,14.27,7.8,3.09,15.09.21,22.1-2.42a164.88,164.88,0,0,0,60.44-39.41c9.58-9.78,17.74-20.68,23.14-33.4C1403.76,1053.79,1404.76,1050.39,1406.45,1045.62Z" transform="translate(-120.01 -178.17)"/><path class="a" d="M120.67,970.56c-0.42,3.44-.8,4.45-0.6,5.32a88.53,88.53,0,0,0,2.77,10.59c13.93,38.36,41.27,64.31,76.76,82.65a24.84,24.84,0,0,0,7.56,2.46c2.78,0.42,5.66.09,8.3,0.09,1.63-8.19,1.5-11.37-2.71-20-14.85-30.36-36.23-54.85-66.25-71C138.73,976.57,130,974.18,120.67,970.56Z" transform="translate(-120.01 -178.17)"/><path class="a" d="M1407.88,971.75c-3.58.76-6.2,1-8.62,1.89-42,14.76-69,44.92-86.21,84.9-1.57,3.66-1.1,8.19-1.56,12.19,9.36,1.58,11.69,1.57,20.28-3,30.16-16.16,54.1-38.67,69.22-69.73C1404.73,990.28,1408.13,982.24,1407.88,971.75Z" transform="translate(-120.01 -178.17)"/><path class="a" d="M207.89,1004.63c-0.4-5.59-.05-11.27-1.38-16.52a112.22,112.22,0,0,0-7.46-20.57c-12.79-26.92-30-50.2-56.21-65.68-5-3-10.56-5-16.71-7.8,0,5.2-.59,8.91.09,12.38,8,41.17,31.48,71.84,65.54,95C195.74,1004.21,200.29,1006.9,207.89,1004.63Z" transform="translate(-120.01 -178.17)"/><path class="a" d="M1323.43,1006.61c4-1.46,8.36-2.24,11.78-4.48,34.22-22.41,57.57-52.7,66.32-93.23,0.93-4.3.7-8.84,1.12-14.93-6,2.6-10.38,4.12-14.39,6.25a112.88,112.88,0,0,0-33,27c-16.39,19.2-29,40.49-34.55,65.43C1319.76,996.91,1319.16,1001.16,1323.43,1006.61Z" transform="translate(-120.01 -178.17)"/><path class="a" d="M139.19,819.38c-0.46,5.66-1.4,9.94-1.06,14.13,3.15,39.44,21,71.63,49.45,98.32,3.91,3.67,9.32,5.74,14.45,8.8,5.7-8.21,4.48-16,3.07-23.28-5.86-30-18.37-56.89-39.6-79.24C158.39,830.63,150.53,824,139.19,819.38Z" transform="translate(-120.01 -178.17)"/><path class="a" d="M1388.32,818.85c-5.76,3.75-10.77,6.35-15,9.89-30.12,25.17-45.47,58.3-51.2,96.44-0.74,4.9-.27,9.94,3.38,13.85C1357.64,933,1396,860.94,1388.32,818.85Z" transform="translate(-120.01 -178.17)"/><path class="a" d="M206.62,864.26c1.21-4.57,3.11-8.55,3.19-12.57C210.63,811,198.71,775,169.88,745.44c-2.73-2.8-6.1-5-9.75-7.87-1.05,2.69-2,4.42-2.42,6.28-2.71,12.55-2.32,25.15-.14,37.73A157,157,0,0,0,188.92,852C192.95,857.21,197.31,862.46,206.62,864.26Z" transform="translate(-120.01 -178.17)"/><path class="a" d="M1368.72,737.42c-3.55,2.66-6.65,4.48-9.15,6.93-29.48,29-40.94,65.11-41.54,105.45-0.07,4.92.77,9.95,5.13,14.17,7.34-1.17,12-6.44,16.2-11.87,16.79-21.67,27.82-46,31.76-73.19C1373,765.53,1373.51,751.92,1368.72,737.42Z" transform="translate(-120.01 -178.17)"/><path class="a" d="M220.2,795.85c5.6-4.05,6.45-10,7.45-15.89,2.26-13.23,1.5-26.5-.16-39.7-2.87-22.74-9.75-44.08-23.56-62.71-3.07-4.13-6.94-7.67-11-12.13-1.5,3.57-2.51,5.65-3.26,7.83-4.85,14.08-5.35,28.64-4.21,43.28a153.6,153.6,0,0,0,20.26,65.08C209.08,787.57,212.73,793.69,220.2,795.85Z" transform="translate(-120.01 -178.17)"/><path class="a" d="M1334.67,666.19c-3.25,3.48-6.62,6.57-9.38,10.14-12.93,16.67-19.89,35.92-23.38,56.46-2.9,17.09-4,34.31-.37,51.48,1,4.52,2,9.16,6.83,11.36C1337.1,781.06,1354.28,698.2,1334.67,666.19Z" transform="translate(-120.01 -178.17)"/><path class="a" d="M242.68,732.61c7.47-4.59,9.23-10.43,10.8-16.17,5.86-21.49,6.49-43.29,3.1-65.21-2.46-15.93-7.41-31-16.59-44.45-1.38-2-3.27-3.7-5.67-6.35-2.5,5-4.87,8.61-6.28,12.61-13.1,37-9.42,73.21,6.27,108.56C236.07,725.58,239.68,728.75,242.68,732.61Z" transform="translate(-120.01 -178.17)"/><path class="a" d="M1284.52,731.63c5.72-1.81,8.3-6.72,10.31-11.5,14.32-33.86,18-68.52,6.54-104-1.66-5.17-4.64-9.91-7.82-16.55-3.61,5.16-6.41,8.39-8.35,12.07-18.46,35.13-19.74,71.75-8.91,109.27C1277.56,725.32,1279.56,729.71,1284.52,731.63Z" transform="translate(-120.01 -178.17)"/><path class="a" d="M1185.28,477.81c-2,5.78-4,10-4.84,14.43-7.44,37.53,1.24,72,20.88,104,2.45,4,6.71,6.89,10.14,10.3,6.24-6.44,7.23-8.27,8.32-16.66a149.49,149.49,0,0,0-11.12-79.08C1203.54,498.84,1196.86,487.79,1185.28,477.81Z" transform="translate(-120.01 -178.17)"/><path class="a" d="M317,606.73c3.76-3.93,7.91-7,10.38-11.07,19.53-32.19,27.82-66.71,20.16-104.18-0.88-4.31-2.89-8.38-5-14.42-5.24,6.36-9.68,10.86-13.09,16-19.33,29.45-24.44,62.16-21,96.55C309,595.38,309.9,601.64,317,606.73Z" transform="translate(-120.01 -178.17)"/><path class="a" d="M1243.48,536.77c-2.79,5.69-5.27,9.63-6.75,13.91-12.49,36.1-8.73,71.37,6.17,105.87,1.93,4.47,4.49,9,10.28,10.73,6.62-4.3,8.42-11.54,10.09-18.57a152.16,152.16,0,0,0,1.71-63.39C1261.82,568.23,1256.41,551.89,1243.48,536.77Z" transform="translate(-120.01 -178.17)"/><path class="a" d="M275.5,667.35c26.28-18.59,31.67-101.09,8.15-129.88-3.21,5-6.74,9.38-9.16,14.34-16.07,33-16.76,67.29-7.9,102.2C267.86,659,269.82,664.25,275.5,667.35Z" transform="translate(-120.01 -178.17)"/><path class="a" d="M408.47,432.24c-3.24,2.45-5.81,4-7.92,6-28.74,27.92-39.8,62.94-40.39,102-0.07,4.72.64,10,5,13.17C395.25,542.06,421.85,468.22,408.47,432.24Z" transform="translate(-120.01 -178.17)"/><path class="a" d="M1119.29,433.14c-4.3,14.27-4.81,22-1.77,41.11,4.06,25.51,14.72,48.22,30.59,68.46,3.82,4.87,8.05,9.75,14.75,10.74C1180.69,529.21,1152,449.82,1119.29,433.14Z" transform="translate(-120.01 -178.17)"/><path class="a" d="M521.17,474.17l-0.75-1-9.19,5,0.65,1.13Z" transform="translate(-120.01 -178.17)"/><path class="a" d="M1033.6,487.92c3.3,1.41,6.8,2.45,9.85,4.27,90.7,53.89,161.93,126.43,209.87,220.84a468.8,468.8,0,0,1,48.73,163.79c10,93.94.19,185.65-33.62,274.1-43.25,113.11-120.06,197.66-223.74,258.66-60.79,35.76-126.19,59.91-194.61,76.27-3.22.77-6.44,1.58-12,3,4.51,1.45,6.91,2.33,9.38,3,14.46,3.9,29,7.59,43.38,11.69,7,2,8.07,3.7,7,10.75a35.38,35.38,0,0,1-3.25,10.39c-3.36,6.79-6,7.78-13.6,5.4-34.7-10.86-70.19-18.39-105.84-25.26-2.56-.49-5.19-0.64-9.06-1.1v48.15l-2,.05c-0.78-15.83-1.55-31.66-2.38-48.64-12.9,2.48-25,4.32-36.85,7.19-25.87,6.27-51.63,13-77.4,19.68-8.08,2.1-10.51,1.28-14.15-6.22a36.56,36.56,0,0,1-2.36-6.56c-2.47-9.28-1.29-11.64,8.2-14.33,13.76-3.91,27.64-7.41,41.46-11.13,2.5-.67,4.94-1.52,9.52-2.95-13.24-3.38-24.4-6.09-35.47-9.08-80.17-21.62-155.23-54.3-222.21-104-108.25-80.28-174.07-187.15-199.18-319.36a602.59,602.59,0,0,1-9.09-160.17c7.92-100.76,43.71-190.88,106.32-270.24,44.3-56.15,97.85-101.58,159.89-137.07a27.26,27.26,0,0,1,10.2-3.86c-2.12,1.5-4.16,3.13-6.37,4.48C408.55,541.94,342,612.21,295.93,701.47a495.49,495.49,0,0,0-50.72,162.25c-10.71,79.69-5.39,158.3,17.31,235.38,33.8,114.8,101.82,204.81,200.64,271.7,69.38,47,146,76.59,227.89,93,22.82,4.57,45.89,7.89,69.51,11.89v-38.52c-160.09-5.56-290.72-69-388.78-195.09C300,1149.78,266.45,1043.64,270.35,927,274.78,794.56,325,680.83,420,588.33c94.73-92.23,209.68-137.67,342.15-140.58l2.17-17h0.58L766,447.5c155.73,4.64,284.7,64.82,383,185.63,76.33,93.8,112.38,202.55,108.75,323.51-4,132.32-53.76,245.72-148,338.31S900.79,1433.6,768,1436.79v37.77c2.13-.14,4.63-0.18,7.1-0.49,73.15-9.23,143.9-27.18,210.88-58.57,83.62-39.18,154.5-94.14,208.63-169.6,44.47-62,72-131,85.06-206a569.39,569.39,0,0,0,5.48-160.31q-17.81-162.84-126.41-285.93A536.58,536.58,0,0,0,1041,493.8c-2.63-1.66-4.81-4-7.2-6.09ZM774.17,613.53c6.92,0.68,12.51,1.36,18.12,1.77,43.8,3.19,85.46,14.48,124,35.51,103.67,56.65,162.73,143.67,175.7,261.46,0.61,5.5,1.37,11,2,16.1,29.58,5.69,100.31,11.93,108.78,9.7,0.42-239.17-201.05-435.94-435.32-434.94ZM434.87,929c4.83-86.6,36.68-160.35,97.56-220.45s135-91,221.1-94.68c3.29-37.39,5.82-74,6.62-110.86-255.39.61-441.11,222.77-433.46,437.2Zm319.34,341.67c-87.15-3.58-161.17-34.77-222-94.89s-92.56-134-97.33-219.88c-36.58-4.07-72.4-8.78-108.55-10.7C323,1035.13,360.4,1167.42,467,1265.93c98.55,91.1,223.85,119.16,292.38,114.57Zm339.66-314.89c-5.33,167.69-146.51,310.81-318,315.15-3.54,10.2-7.56,101.37-4.88,110.74,249.45-2.63,435.06-215.24,431.23-436.44C1166.11,947,1130.33,952,1093.88,955.83ZM751.63,642.1C598.55,645.56,468.77,775,464.94,929.95a82.19,82.19,0,0,0,8.74,0c32.44-3.48,64.94-6.54,97.28-10.76,25.48-3.32,50.24-9.85,73.74-20.73,37-17.12,63-44,75.25-83.34,1.78-5.72,3.86-11.35,5.52-17.11,11.1-38.51,17.53-77.9,22.19-117.62C749.12,667.86,750.26,655.34,751.63,642.1Zm311.65,312.22c-2.64,0-4.61-.18-6.53,0-29.79,3.17-59.63,6-89.35,9.72-29.48,3.7-58.35,10.08-85.43,23-35,16.7-60.29,42.18-72.57,79.55-2.7,8.22-5.52,16.41-7.83,24.74-12.81,46-19.26,93.15-23.83,140.58-0.34,3.53,0,7.13,0,10.71C931.17,1238.94,1059.92,1108.05,1063.28,954.32ZM464.62,954C471,1123.16,612.4,1241.55,751.1,1242.34a53,53,0,0,0,0-6.78c-3.83-29.35-7.08-58.8-11.79-88-4.92-30.56-12.2-60.66-23.62-89.58a122.06,122.06,0,0,0-37.48-50.87c-22.52-18.2-48.74-28.42-76.45-35.17-37.63-9.16-76.13-12.42-114.56-16C479.94,955.21,472.7,954.67,464.62,954ZM777,642.3c0.49,6.67.75,12.63,1.41,18.55,1.64,14.56,3.19,29.14,5.27,43.64,5.54,38.61,12.87,76.79,25.62,113.82,11.28,32.77,32.13,57.11,62.29,73.79a212.08,212.08,0,0,0,68.65,23.59c29.22,4.8,58.67,8.25,88.06,11.94,11.44,1.44,23,1.94,34.57,2.88C1061.77,781.7,933.66,645.08,777,642.3ZM1216,945.18c-3,122.51-45.71,228.58-132.27,315.51s-192.36,129.9-315,133.59v34A466.81,466.81,0,0,0,962.51,1386q137.29-62.26,216.25-190.9c105-171.39,93.14-389.2-29.85-548.83-62-80.44-141.67-136.25-238.36-167.4a458.93,458.93,0,0,0-144.88-22.45l2,34.2c123.58,3.25,229.46,46.54,316,133.38S1213,816.85,1216,939.19l7.17,3.34Zm-454.77-489c-5,0-9.36-.39-13.59.06-24.81,2.68-49.92,3.93-74.35,8.65-104,20.09-193.15,68.5-264.39,146.89C297.65,734.21,257,878.21,288.79,1040.27c32.95,167.83,153.74,304,314.58,360.88a472.59,472.59,0,0,0,140.76,26.92c5.15,0.19,10.31-.07,15-0.11v-33.53c-4-.34-7.27-0.75-10.53-0.86a431.76,431.76,0,0,1-72.38-8.3c-96.36-19.74-178.24-65.61-244.75-138-59.88-65.2-97.73-141.64-112.09-229.16-3.6-21.95-4.75-44.32-6.58-66.53-0.39-4.8-1.5-8-7.32-8.52,6.61-4,6.62-4,7.18-10.13,0.24-2.65.33-5.32,0.61-8,2.31-21.84,3.17-43.95,7.22-65.46C339.13,760.6,385.67,676.72,460,609.11c81.17-73.79,177-113.24,286.9-117.62,4.55-.18,9.09-0.76,14.27-1.21V456.19Z" transform="translate(-120.01 -178.17)"/><path class="a" d="M995.06,290.69l44,9.2V214.3l-57-3.62c-1.17,36.44.75,71.92,0.64,107.39-0.1,35.25,0,70.49,0,106.34l-45-16.13q-1.51-114.13-3-229.51c3.94-.24,6.83-0.57,9.73-0.57q53-.05,106,0a92.08,92.08,0,0,1,15.89,1.41c9.47,1.7,15.5,7.53,17.42,17a76.43,76.43,0,0,1,1.51,14.87q0.19,51,0,102a54.68,54.68,0,0,1-1.45,12.84c-2,7.92-6.53,11.14-14.65,10.21-5.26-.6-10.42-2.14-15.61-3.3-2.82-.63-5.63-1.34-9.84-2.35,18,51.42,34.44,101.86,48.6,154.83-3.6-2.05-5.78-3.16-7.82-4.49-10.88-7.1-21.58-14.48-32.65-21.27-4.33-2.66-6.53-6.06-8.16-10.66q-22.66-64-45.7-127.87C994.49,311.79,994.42,302.08,995.06,290.69Z" transform="translate(-120.01 -178.17)"/><path class="a" d="M583.83,251.81l-46.07,5.63V211.21a485.88,485.88,0,0,0-56.06,3.41c0,15.69-.33,30.94.31,46.15,0.11,2.7,3.79,6,6.61,7.72,22.76,13.82,45.69,27.37,68.62,40.91,4.87,2.87,9.93,5.43,15,8,6.57,3.36,9.87,8.53,9.79,16-0.21,19-.21,38-0.4,57-0.09,8.88-3.67,16.36-10.84,21.48a85.28,85.28,0,0,1-17.29,9.75A555.35,555.35,0,0,0,463,468.09a60.75,60.75,0,0,1-13.35,6.59c-6.72,2.22-10.72-.31-12.83-7.18a20.6,20.6,0,0,1-1-5.88c-0.07-25.3,0-50.6,0-75.6,9.63-6.8,35.61-18,45.24-19.49v54.08L535,396.82V348.56c-11.16-5.83-23.09-11.62-34.59-18.17-17.34-9.89-34.35-20.38-51.57-30.5-9.26-5.44-13.25-13.56-13.23-24.07,0.05-23.32-.23-46.65.1-70,0.25-18.33,9.05-26.79,27.3-27,29.31-.3,58.61-0.57,87.92-0.6a89.72,89.72,0,0,1,17.84,1.78c9,1.82,14.72,7.84,14.91,16.38C584.11,214.7,583.83,233,583.83,251.81Z" transform="translate(-120.01 -178.17)"/><path class="a" d="M827.05,232.85l-2.48.28L804,317.84l44.61,3.29Z" transform="translate(-120.01 -178.17)"/><path class="a" d="M1246.65,1676.32v-90.84h32.13V1751.1c-9.41.86-18.87,0.3-28.8,0.32l-48.52-95.2-1.79.28v94.44h-32.37V1585c8.84,0,17.44-.49,25.91.31,2.38,0.22,5,3.87,6.48,6.54,8.17,15.27,16,30.72,24,46.09q10.07,19.42,20.22,38.81Z" transform="translate(-120.01 -178.17)"/><path class="a" d="M754,178.65v27.08H704.46c-0.34,4-.78,6.8-0.8,9.65-0.17,21-.24,41.94-0.37,62.9q-0.31,49.41-.68,98.83c0,2.62-.35,5.24-0.56,8.31l-46.74,6.78c0.66-61.47,1.32-122.22,2-184-16.69-1.4-32.81.51-50.21,0.15a194.26,194.26,0,0,1,0-29.66H754Z" transform="translate(-120.01 -178.17)"/><path class="a" d="M325.26,1694.71H357a61.83,61.83,0,0,1,.93,7.43c0.1,11.33.18,22.66,0,34-0.13,8.25-3.31,12.14-11.37,14a55.61,55.61,0,0,1-11.87,1.36q-31.49.19-63,0a51.06,51.06,0,0,1-10.88-1.28c-8-1.81-11.19-5.69-11.45-14-0.21-6.66-.06-13.33-0.06-20,0-37.32.38-74.65-.18-112-0.24-15.86,7.45-19.3,19.12-19.36q35-.18,70,0a36.71,36.71,0,0,1,10.8,1.63c5.08,1.62,8.76,5.06,8.81,10.85,0.12,13.6,0,27.21,0,41.45H325.39v-32.11H284.64c-2.39,6.91-3.17,108-.88,122h41.5v-34.1Z" transform="translate(-120.01 -178.17)"/><path class="a" d="M1014.61,1585.52H1105v21.64h-55.5c-2.26,8.14-2.56,36.93-.56,48.15h48v21.82h-48.65v50.53c9.31,2.5,18.91.84,28.37,1.13s19.16,0.07,29.36.07v22.07h-91.37v-165.4Z" transform="translate(-120.01 -178.17)"/><path class="a" d="M849.5,1750.8a29.2,29.2,0,0,1,2.2-19.85c17.6-36.61,34.95-73.35,52.35-110,1.82-3.84,3.48-7.75,5.77-12.85h-55.4v-21.43c6.68-2.2,81.62-2.85,95.4-.67,1.76,7.22.74,14-2.59,20.93-18.23,37.79-36.25,75.67-54.34,113.53-1,2-1.91,4.09-3.44,7.37h60.34v23H849.5Z" transform="translate(-120.01 -178.17)"/><path class="a" d="M647.25,1607.16V1751c-10.91,1.07-21.37.39-33.2,0.48-0.8-12.23-.3-24.07-0.39-35.87-0.09-12,0-24,0-35.93v-71.89h-35.7v-22.23H682.85v21.65h-35.6Z" transform="translate(-120.01 -178.17)"/><path class="a" d="M456.28,1585.48h32.39v165.39H456.28V1585.48Z" transform="translate(-120.01 -178.17)"/><path class="a" d="M784.75,1585.46V1750.9h-32.5V1585.46h32.5Z" transform="translate(-120.01 -178.17)"/><path class="a" d="M454.33,1542.31c2.33-3.83,4.25-7.61,6.73-11,12.11-16.34,27.76-28.53,45.63-37.94,19.87-10.46,40.74-18,63.22-20.2,6.84-.68,13.89-1.34,21.16,4.11-1.75,3.76-2.94,7.91-5.37,11.12a85.72,85.72,0,0,1-12.18,13.1c-24.06,20.83-51.29,35.48-82.84,41.42C476.84,1545.56,466.63,1545.49,454.33,1542.31Z" transform="translate(-120.01 -178.17)"/><path class="a" d="M937.79,1477.22c4.47-4.9,10.32-4.42,15.86-4.3,14.47,0.33,28.25,4.18,41.77,9,24.17,8.56,46.14,20.76,63.67,39.84,5.53,6,10.14,12.88,16,20.47-13.21,4-24.71,2.92-35.92,1-34.46-6-63.81-22.35-89.22-46C944.24,1491.86,938.49,1486,937.79,1477.22Z" transform="translate(-120.01 -178.17)"/><path class="a" d="M1000.42,1454.59c4.82-5.62,11.89-6.13,18.27-6.13,41.15,0,79,10.33,111,37.46,4.73,4,8.59,9,13.91,14.73a72.7,72.7,0,0,1-25.21,5.21,145.6,145.6,0,0,1-68.9-13.57c-12.89-6-25.21-13.44-37.14-21.22C1003.87,1465.52,1002.76,1462.57,1000.42,1454.59Z" transform="translate(-120.01 -178.17)"/><path class="a" d="M385.1,1501.3a81.71,81.71,0,0,1,20.9-21.54c23.34-17.19,49.81-26.53,78.36-29.81,10.47-1.2,21.16-.51,31.75-0.58a16.42,16.42,0,0,1,4.9.89c7.35,2.3,8.55,5.48,4.22,11.63a27.48,27.48,0,0,1-5.35,5.9c-36.41,28.38-76.93,42.91-123.62,36.3C393,1503.63,389.86,1502.51,385.1,1501.3Z" transform="translate(-120.01 -178.17)"/><path class="a" d="M1202.11,1450.47c-37.69,23-130.07,7-146.56-24.35,2-5.27,7.1-6.66,11.76-7.71a128.92,128.92,0,0,1,21.66-3.12c33.56-1.69,65.67,3.6,94.81,21.42C1189.94,1440.47,1195.4,1445.37,1202.11,1450.47Z" transform="translate(-120.01 -178.17)"/><path class="a" d="M473.08,1425.65c-3.45,9.12-10.74,12.76-17.72,16.49-20.18,10.81-41.91,16.86-64.57,19.16-16.25,1.65-32.58,1.2-48.45-3.49-5-1.47-9.79-3.57-15.56-5.71,4.66-6.9,10.36-10.78,16.13-14.49,20-12.84,42.21-19.26,65.63-21.64,16.91-1.72,33.84-2.05,50.56,1.91C464.28,1419.11,469.31,1420.72,473.08,1425.65Z" transform="translate(-120.01 -178.17)"/><path class="a" d="M1108.8,1390.91c4.22-7.15,10.87-9.46,17.47-11.5a169.15,169.15,0,0,1,64-6.68c18.36,1.47,36.15,5.32,52.48,14.26,4.27,2.34,8.25,5.22,14.24,9.05-7.42,3.78-13,7.19-18.94,9.56-23.79,9.44-48.65,10.68-73.57,7.1-13.69-2-27.1-6.21-40.43-10.1C1118.08,1400.86,1112.52,1397.54,1108.8,1390.91Z" transform="translate(-120.01 -178.17)"/><path class="a" d="M271.59,1396.56c13.95-11.58,28.15-16.92,43.08-20.32,28.07-6.39,56.1-5.28,83.85,2,8,2.1,15.94,4.68,21,12.17-3.06,6.64-8.55,10-14.56,11.79-13.65,4-27.34,8.5-41.35,10.5-24.56,3.5-49.12,2.4-72.63-6.85C284.95,1403.5,279.21,1400.25,271.59,1396.56Z" transform="translate(-120.01 -178.17)"/><path class="a" d="M1159.36,1351.22c3.18-8.79,9.17-12.22,15.16-14.61,11.37-4.54,22.94-8.9,34.81-11.77,25.56-6.18,51.33-6.78,76.77,1.06,6.2,1.91,12.06,4.94,20.46,8.45-8.4,5.51-14.35,10.23-21,13.63-27.44,14-56.83,17.78-87.16,14.88a156.07,156.07,0,0,1-25.36-4.87C1168.46,1356.75,1164.33,1353.75,1159.36,1351.22Z" transform="translate(-120.01 -178.17)"/><path class="a" d="M223.6,1334.41c10.58-7.18,21.5-10.15,32.6-12,33.44-5.5,65.51-.16,96.31,13.47a48.69,48.69,0,0,1,10.93,6.87c6.31,5.16,5.87,8.79-1.55,12.6a50.33,50.33,0,0,1-12.14,4.37c-32.29,7-64.09,5.26-95.13-6.27C243.4,1349.31,232.79,1343.81,223.6,1334.41Z" transform="translate(-120.01 -178.17)"/><path class="a" d="M184.86,1268.25c40.87-18.88,127.17,2.92,140.2,34.19-3.7,5.5-10,6.6-15.66,7-39.68,3-77-3.87-109.84-27.91C194.58,1277.92,190.34,1273.26,184.86,1268.25Z" transform="translate(-120.01 -178.17)"/><path class="a" d="M1343.56,1267.27c-3.7,4-5.93,6.73-8.54,9.07-19.71,17.67-43.37,27.06-69.06,31.12-13.06,2.06-26.47,2.37-39.73,2.47-6.13,0-12.48-1.73-18.36-3.75-5.19-1.78-6-5-2.32-9.2a58.63,58.63,0,0,1,12.68-11,170.35,170.35,0,0,1,69-24.42,117.77,117.77,0,0,1,44.54,2.14C1335,1264.46,1338.09,1265.58,1343.56,1267.27Z" transform="translate(-120.01 -178.17)"/><path class="a" d="M287.61,1249.79c-5.86,5.37-12.44,5.33-18.6,4.94-36.57-2.31-69.62-14-97.67-38.17a71.59,71.59,0,0,1-16.1-19.68c12.46-4.38,24.44-3.82,36.12-2.32,30.8,4,58,16.64,82.16,36C279.66,1235.52,285.86,1240.75,287.61,1249.79Z" transform="translate(-120.01 -178.17)"/><path class="a" d="M1373.08,1198.62c-5.49,6.08-10.44,12.79-16.57,18.14-27.61,24.14-60.48,35.4-96.62,38a45.48,45.48,0,0,1-13.81-1.5c-5.14-1.27-6.45-4.44-3.57-9a47.05,47.05,0,0,1,9.59-11.36c30.27-24.74,64.24-39.94,104.15-38.93,5.24,0.13,10.45,1.25,15.68,1.9Z" transform="translate(-120.01 -178.17)"/><path class="a" d="M133.58,1120.83c11.83-2.17,22.33-.48,32.61,2.13,31.91,8.12,58.36,25.35,80.45,49.48,6.67,7.29,7.83,10.23,9,19.49-3.29.72-6.71,2.13-10.09,2a72.17,72.17,0,0,1-15.76-2.07c-30.32-7.65-57.14-21.65-78.86-44.53C143.84,1139.9,137.51,1131.86,133.58,1120.83Z" transform="translate(-120.01 -178.17)"/><path class="a" d="M1270.58,1190.43c3.83-6.38,6.25-12.37,10.31-16.88,24.75-27.49,54.63-46.38,91.65-52.58a91.81,91.81,0,0,1,11.91-1.05c3-.1,5.94.28,10.43,0.53-1.65,3.68-2.66,6.69-4.24,9.36-9.31,15.82-22.39,28-37.5,38.1a166.07,166.07,0,0,1-58.39,24.9C1287.34,1194.37,1279.76,1195.67,1270.58,1190.43Z" transform="translate(-120.01 -178.17)"/><path class="a" d="M122.34,1045c8,1.41,14.7,1.85,20.9,3.77,36.11,11.21,63.39,34.06,84,65.27,2.5,3.78,3.85,8.41,5.26,12.8,1.33,4.14-.94,6.72-5,6.52-4.92-.25-10.09-0.62-14.65-2.31-32.94-12.17-60.59-31.46-80.12-61.21C128.2,1062.91,124.27,1055.61,122.34,1045Z" transform="translate(-120.01 -178.17)"/><path class="a" d="M1406.45,1045.62c-1.68,4.77-2.69,8.17-4.06,11.41-5.4,12.72-13.56,23.62-23.14,33.4a164.88,164.88,0,0,1-60.44,39.41c-7,2.63-14.31,5.52-22.1,2.42-2.56-5.42-.53-10.28,2.16-14.27,6.1-9.06,12.18-18.31,19.58-26.26,20.29-21.79,44-38.4,73.83-44.58C1396.38,1046.29,1400.66,1046.22,1406.45,1045.62Z" transform="translate(-120.01 -178.17)"/><path class="a" d="M120.67,970.56c9.35,3.62,18.06,6,25.81,10.18,30,16.11,51.4,40.6,66.25,71,4.2,8.6,4.34,11.78,2.71,20-2.63,0-5.52.33-8.3-.09a24.84,24.84,0,0,1-7.56-2.46c-35.49-18.34-62.83-44.29-76.76-82.65a88.53,88.53,0,0,1-2.77-10.59C119.87,975,120.25,974,120.67,970.56Z" transform="translate(-120.01 -178.17)"/><path class="a" d="M1407.88,971.75c0.25,10.48-3.15,18.52-6.89,26.22-15.11,31.06-39.06,53.58-69.22,69.73-8.59,4.6-10.92,4.61-20.28,3,0.46-4,0-8.54,1.56-12.19,17.16-40,44.16-70.14,86.21-84.9C1401.68,972.79,1404.3,972.52,1407.88,971.75Z" transform="translate(-120.01 -178.17)"/><path class="a" d="M207.89,1004.63c-7.6,2.26-12.15-.43-16.13-3.14-34.06-23.21-57.52-53.87-65.54-95-0.68-3.47-.09-7.18-0.09-12.38,6.15,2.83,11.71,4.84,16.71,7.8,26.17,15.48,43.42,38.76,56.21,65.68a112.22,112.22,0,0,1,7.46,20.57C207.84,993.36,207.49,999,207.89,1004.63Z" transform="translate(-120.01 -178.17)"/><path class="a" d="M1323.43,1006.61c-4.27-5.45-3.67-9.7-2.72-14,5.57-24.95,18.16-46.23,34.55-65.43a112.88,112.88,0,0,1,33-27c4-2.12,8.35-3.65,14.39-6.25-0.42,6.09-.19,10.64-1.12,14.93-8.75,40.54-32.1,70.82-66.32,93.23C1331.79,1004.37,1327.4,1005.14,1323.43,1006.61Z" transform="translate(-120.01 -178.17)"/><path class="a" d="M139.19,819.38c11.34,4.59,19.2,11.26,26.29,18.73,21.23,22.35,33.74,49.23,39.6,79.24,1.42,7.25,2.64,15.06-3.07,23.28-5.13-3.06-10.54-5.13-14.45-8.8-28.43-26.69-46.3-58.88-49.45-98.32C137.79,829.32,138.73,825,139.19,819.38Z" transform="translate(-120.01 -178.17)"/><path class="a" d="M1388.32,818.85C1396,860.94,1357.64,933,1325.49,939c-3.64-3.91-4.11-8.94-3.37-13.85,5.72-38.13,21.08-71.27,51.2-96.44C1377.55,825.2,1382.56,822.6,1388.32,818.85Z" transform="translate(-120.01 -178.17)"/><path class="a" d="M206.62,864.26c-9.31-1.8-13.67-7-17.7-12.23a157,157,0,0,1-31.36-70.46c-2.17-12.58-2.57-25.17.14-37.73,0.4-1.86,1.36-3.59,2.42-6.28,3.65,2.92,7,5.08,9.75,7.87C198.71,775,210.63,811,209.82,851.69,209.74,855.71,207.83,859.69,206.62,864.26Z" transform="translate(-120.01 -178.17)"/><path class="a" d="M1368.72,737.42c4.8,14.5,4.32,28.11,2.39,41.47-3.93,27.16-15,51.52-31.76,73.19-4.21,5.44-8.86,10.71-16.2,11.87-4.36-4.22-5.2-9.25-5.12-14.17,0.6-40.33,12.06-76.48,41.54-105.45C1362.06,741.9,1365.17,740.08,1368.72,737.42Z" transform="translate(-120.01 -178.17)"/><path class="a" d="M220.2,795.85c-7.47-2.16-11.12-8.28-14.53-14.24a153.6,153.6,0,0,1-20.26-65.08c-1.14-14.64-.65-29.2,4.21-43.28,0.75-2.17,1.76-4.25,3.26-7.83,4.1,4.46,8,8,11,12.13,13.81,18.62,20.69,40,23.56,62.71,1.67,13.2,2.42,26.47.16,39.7C226.65,785.82,225.8,791.8,220.2,795.85Z" transform="translate(-120.01 -178.17)"/><path class="a" d="M1334.67,666.19c19.62,32,2.43,114.87-26.3,129.43-4.84-2.19-5.87-6.84-6.83-11.36-3.62-17.17-2.53-34.39.37-51.48,3.49-20.54,10.45-39.79,23.38-56.46C1328.05,672.77,1331.42,669.67,1334.67,666.19Z" transform="translate(-120.01 -178.17)"/><path class="a" d="M242.68,732.61c-3-3.87-6.61-7-8.37-11C218.62,686.25,214.94,650.07,228,613c1.41-4,3.78-7.65,6.28-12.61,2.4,2.66,4.29,4.33,5.67,6.35,9.17,13.44,14.12,28.52,16.59,44.45,3.39,21.93,2.76,43.73-3.1,65.21C251.91,722.18,250.15,728,242.68,732.61Z" transform="translate(-120.01 -178.17)"/><path class="a" d="M1284.52,731.63c-5-1.92-7-6.31-8.23-10.7-10.83-37.52-9.55-74.14,8.91-109.27,1.94-3.68,4.74-6.91,8.35-12.07,3.18,6.64,6.16,11.38,7.82,16.55,11.41,35.47,7.78,70.14-6.54,104C1292.82,724.91,1290.24,729.82,1284.52,731.63Z" transform="translate(-120.01 -178.17)"/><path class="a" d="M1185.28,477.81c11.58,10,18.26,21,23.38,33a149.49,149.49,0,0,1,11.12,79.08c-1.09,8.39-2.07,10.22-8.32,16.66-3.43-3.41-7.69-6.3-10.14-10.3-19.64-32.07-28.32-66.5-20.88-104C1181.32,487.8,1183.3,483.59,1185.28,477.81Z" transform="translate(-120.01 -178.17)"/><path class="a" d="M317,606.73c-7.12-5.08-8-11.34-8.61-17.07-3.42-34.39,1.69-67.1,21-96.55,3.4-5.18,7.85-9.68,13.09-16,2.14,6,4.16,10.11,5,14.42,7.66,37.47-.62,72-20.16,104.18C324.93,599.73,320.78,602.79,317,606.73Z" transform="translate(-120.01 -178.17)"/><path class="a" d="M1243.48,536.77c12.93,15.11,18.34,31.45,21.5,48.56a152.16,152.16,0,0,1-1.71,63.39c-1.67,7-3.47,14.27-10.09,18.57-5.8-1.72-8.35-6.26-10.28-10.73-14.9-34.5-18.66-69.77-6.17-105.87C1238.21,546.4,1240.68,542.47,1243.48,536.77Z" transform="translate(-120.01 -178.17)"/><path class="a" d="M275.5,667.35c-5.68-3.1-7.64-8.32-8.91-13.34-8.87-34.91-8.17-69.22,7.9-102.2,2.42-5,6-9.37,9.16-14.34C307.17,566.27,301.77,648.76,275.5,667.35Z" transform="translate(-120.01 -178.17)"/><path class="a" d="M408.47,432.24c13.38,36-13.22,109.83-43.28,121.2-4.38-3.21-5.09-8.45-5-13.17,0.58-39,11.64-74.06,40.39-102C402.65,436.24,405.22,434.69,408.47,432.24Z" transform="translate(-120.01 -178.17)"/><path class="a" d="M1119.29,433.14c32.76,16.68,61.4,96.07,43.57,120.32-6.7-1-10.93-5.87-14.75-10.74-15.87-20.24-26.53-43-30.59-68.46C1114.48,455.16,1115,447.41,1119.29,433.14Z" transform="translate(-120.01 -178.17)"/><path class="a" d="M521.17,474.17l-9.3,5.11-0.65-1.13,9.19-5Z" transform="translate(-120.01 -178.17)"/><path class="a" d="M1033.78,487.71l-13.07-5.47c5.26,0,9.83,1.42,12.89,5.69Z" transform="translate(-120.01 -178.17)"/><path class="a" d="M912.25,400.89L865.71,391l-10.35-41.73L798,344.52l-9.68,37.71H741.46l60.11-203.62h48.65C871.74,251.5,892.25,325.06,912.25,400.89Zm-85.2-168,21.58,88.29L804,317.84l20.55-84.72Z" transform="translate(-120.01 -178.17)"/></svg>